<svg width="13" height="11" viewBox="0 0 13 11" fill="none" xmlns="http://www.w3.org/2000/svg">
<path d="M10 -5H2C-1.309 -5 -4 -2.309 -4 1V14C-4 14.2652 -3.89464 14.5196 -3.70711 14.7071C-3.51957 14.8946 -3.26522 15 -3 15H10C13.309 15 16 12.309 16 9V1C16 -2.309 13.309 -5 10 -5ZM14 9C14 11.206 12.206 13 10 13H-2V1C-2 -1.206 -0.206 -3 2 -3H10C12.206 -3 14 -1.206 14 1V9Z" fill="#F8F8F8"/>
<path d="M3.99999 8.59998H0.799988V6.99998H3.99999V8.59998ZM8.39999 5.40021L0.799988 5.39998V3.79997L8.39999 3.80021V5.40021ZM11.2 2.19997H0.799988V0.599976H11.2V2.19997Z" fill="#9494A0"/>
<path d="M7.59359 10.0626L4.79999 7.39998L5.99999 6.19998L7.59359 7.80021L11.6 3.80021L12.7288 4.93381L7.59359 10.0626Z" fill="#9494A0"/>
</svg>
